<?xml version="1.0" standalone="no"?>
<!DOCTYPE svg PUBLIC "-//W3C//DTD SVG 20010904//EN"
 "http://www.w3.org/TR/2001/REC-SVG-20010904/DTD/svg10.dtd">
<svg version="1.0" xmlns="http://www.w3.org/2000/svg"
 width="1000.000000pt" height="1000.000000pt" viewBox="0 0 1000.000000 1000.000000"
 preserveAspectRatio="xMidYMid meet">
<metadata>
Created by potrace 1.14, written by Peter Selinger 2001-2017
</metadata>
<g transform="translate(0.000000,1000.000000) scale(0.100000,-0.100000)"
fill="#000000" stroke="none">
<path d="M6975 8301 c-323 -84 -787 -375 -1360 -850 -82 -69 -210 -179 -260
-224 -11 -11 -45 -36 -75 -57 -162 -112 -418 -356 -637 -607 l-52 -59 -53 6
c-56 8 -396 5 -438 -4 -14 -2 -47 -7 -75 -11 -223 -28 -489 -114 -702 -226
-85 -45 -299 -180 -313 -198 -3 -3 -27 -24 -55 -46 -72 -58 -90 -74 -153 -135
-121 -117 -285 -318 -327 -399 -21 -42 -15 -94 17 -128 43 -47 65 -50 329 -57
335 -9 472 -40 586 -132 48 -40 81 -89 103 -156 l16 -48 -81 -163 c-113 -226
-214 -487 -261 -672 -4 -16 -8 -32 -9 -35 -1 -3 -5 -23 -10 -45 -5 -22 -10
-42 -10 -45 -4 -14 -19 -146 -18 -151 1 -3 -26 -18 -60 -35 -144 -68 -401
-382 -484 -592 -60 -154 -74 -231 -79 -447 -3 -145 4 -231 31 -385 37 -219
161 -545 243 -641 35 -40 85 -61 182 -74 48 -6 316 -7 390 0 42 3 159 17 170
20 3 1 25 5 50 9 25 4 81 17 125 28 313 77 568 228 718 427 65 86 176 266 214
349 33 70 69 205 59 221 -9 13 9 27 88 70 214 117 535 388 780 659 44 49 53
54 95 56 127 7 247 -62 340 -198 49 -70 114 -205 176 -366 86 -222 110 -258
182 -279 63 -18 118 33 219 202 97 164 223 441 239 527 1 3 9 30 18 61 19 64
47 188 53 239 2 19 6 44 8 55 9 37 20 199 20 290 0 300 -63 600 -186 888 -49
114 -50 118 -33 143 22 34 150 286 202 399 75 165 149 363 168 457 4 18 31 96
60 173 30 77 70 187 90 245 20 58 39 112 42 120 4 8 7 17 8 20 1 3 6 21 12 40
93 296 164 548 178 629 3 19 8 37 10 40 4 7 45 230 51 281 3 19 7 46 10 60 3
14 7 97 9 185 7 250 -31 392 -128 488 -75 74 -116 90 -247 93 -88 3 -131 -1
-185 -15z m-1854 -3188 c13 -16 12 -17 -3 -4 -10 7 -18 15 -18 17 0 8 8 3 21
-13z m-1698 -1849 c79 -24 200 -96 391 -232 324 -232 356 -346 175 -617 -54
-81 -113 -140 -184 -184 -55 -35 -185 -87 -236 -96 -19 -3 -59 -11 -89 -17
-30 -6 -113 -11 -185 -11 -163 0 -194 12 -243 93 -72 120 -122 335 -117 505 3
147 34 243 111 352 91 128 149 180 232 208 35 12 104 12 145 -1z"/>
</g>
</svg>
